<svg xmlns="http://www.w3.org/2000/svg" xmlns:xlink="http://www.w3.org/1999/xlink">

    <symbol viewBox="0 0 156 63" id="logo">
        <path d="M10.3513 57.0912C10.3513 55.9798 9.9699 55.0428 9.21807 54.2691C8.46624 53.4955 7.55097 53.1142 6.48316 53.1142C5.51341 53.1142 4.67441 53.4192 3.96617 54.0403C3.26882 54.6505 2.83298 55.3914 2.66953 56.274H1.63441V53.2776H0V60.9048H1.63441V57.7995H2.66953C2.83298 58.7256 3.26882 59.5101 3.96617 60.1312C4.66351 60.7523 5.50251 61.0683 6.48316 61.0683C7.55097 61.0683 8.46624 60.6869 9.21807 59.9133C9.9699 59.1506 10.3513 58.2026 10.3513 57.0912ZM8.71685 57.0912C8.71685 57.8104 8.49893 58.4096 8.06309 58.8782C7.61635 59.3576 7.09334 59.5973 6.48316 59.5973C5.87298 59.5973 5.34997 59.3576 4.91412 58.8782C4.46738 58.4096 4.24946 57.8104 4.24946 57.0912C4.24946 56.3721 4.46738 55.7728 4.91412 55.2934C5.34997 54.8248 5.87298 54.5851 6.48316 54.5851C7.09334 54.5851 7.61635 54.8248 8.06309 55.2934C8.49893 55.7728 8.71685 56.3721 8.71685 57.0912Z"
              fill="currentColor"/>
        <path d="M12.9603 53.2781V60.9054H14.5947V58.3993H16.1746C16.9591 58.3993 17.6129 58.1487 18.125 57.6583C18.6371 57.168 18.8986 56.5578 18.8986 55.8387C18.8986 55.1087 18.6371 54.5094 18.125 54.0082C17.602 53.5178 16.9591 53.2781 16.1746 53.2781H12.9603ZM16.1201 54.7491C16.447 54.7491 16.7194 54.858 16.9373 55.0651C17.1553 55.2721 17.2642 55.5336 17.2642 55.8387C17.2642 56.1438 17.1553 56.4053 16.9373 56.6123C16.7194 56.8193 16.447 56.9283 16.1201 56.9283H14.5947V54.7491H16.1201Z"
              fill="currentColor"/>
        <path d="M28.2618 60.9054V53.2781H26.8453L23.0862 58.1269V53.2781H21.4518V60.9054H22.8683L26.6274 56.0566V60.9054H28.2618Z"
              fill="currentColor"/>
        <path d="M30.3245 59.4344V62.4853H31.959V60.9054H36.5353V62.4853H38.1697V59.4344H37.2435V53.2781H31.959V55.6208C31.959 56.1329 31.9154 56.6123 31.8282 57.0591C31.741 57.5167 31.643 57.8763 31.5449 58.1487C31.4359 58.4102 31.3161 58.6499 31.1744 58.8787C31.0328 59.0966 30.9456 59.2383 30.8911 59.3036C30.8258 59.3581 30.7931 59.4126 30.7604 59.4344H30.3245ZM33.5934 55.6208V54.7491H35.6091V59.4344H32.3948L32.5256 59.3036C32.6018 59.2165 32.6999 59.0748 32.8197 58.8678C32.9396 58.6608 33.0486 58.4211 33.1684 58.1487C33.2883 57.8763 33.3863 57.5058 33.4626 57.0591C33.5498 56.6123 33.5934 56.1329 33.5934 55.6208Z"
              fill="currentColor"/>
        <path d="M47.3114 60.9054V53.2781H45.8949L42.1358 58.1269V53.2781H40.5014V60.9054H41.9178L45.677 56.0566V60.9054H47.3114Z"
              fill="currentColor"/>
        <path d="M51.8817 53.2781H50.2473V55.6208C50.2473 56.536 50.487 57.2443 50.9665 57.7455C51.4568 58.2576 52.1214 58.5082 52.9713 58.5082C53.7014 58.5082 54.3007 58.3666 54.7692 58.0724V60.9054H56.4036V53.2781H54.7692V56.4925L54.5839 56.6341C54.4641 56.7213 54.2789 56.8084 54.0282 56.9065C53.7776 56.9937 53.5161 57.0373 53.2437 57.0373C52.8079 57.0373 52.4701 56.9174 52.2304 56.6777C52.0016 56.4271 51.8817 56.0784 51.8817 55.6208V53.2781Z"
              fill="currentColor"/>
        <path d="M65.9856 53.2781H64.3512V56.329H61.0824V53.2781H59.448V60.9054H61.0824V57.8H64.3512V60.9054H65.9856V53.2781Z"
              fill="currentColor"/>
        <path d="M72.9549 57.691H71.1026L72.0288 55.1849L72.9549 57.691ZM73.4997 59.1075L74.1535 60.9054H75.8969L72.9004 53.2781H71.1571L68.1606 60.9054H69.904L70.5578 59.1075H73.4997Z"
              fill="currentColor"/>
        <path d="M83.0222 53.2781H81.3878V60.9054H83.0222V58.7262L84.0029 57.6365L86.2366 60.9054H88.1434L85.0925 56.438L87.9255 53.2781H86.0187L83.0222 56.6014V53.2781Z"
              fill="currentColor"/>
        <path d="M91.4614 57.0912C91.4614 56.3939 91.7012 55.7946 92.1806 55.3152C92.6491 54.8248 93.2266 54.5851 93.9131 54.5851C94.5995 54.5851 95.177 54.8248 95.6455 55.3152C96.125 55.7946 96.3647 56.3939 96.3647 57.0912C96.3647 57.7995 96.125 58.3879 95.6455 58.8673C95.177 59.3576 94.5995 59.5973 93.9131 59.5973C93.2266 59.5973 92.6491 59.3576 92.1806 58.8673C91.7012 58.3879 91.4614 57.7995 91.4614 57.0912ZM89.7726 57.0912C89.7726 58.1808 90.1757 59.1288 90.9711 59.9024C91.7665 60.676 92.7472 61.0683 93.9131 61.0683C95.0789 61.0683 96.0596 60.676 96.855 59.9024C97.6504 59.1288 98.0536 58.1808 98.0536 57.0912C98.0536 55.9907 97.6504 55.0537 96.855 54.28C96.0596 53.5064 95.0789 53.1142 93.9131 53.1142C92.7472 53.1142 91.7665 53.5064 90.9711 54.28C90.1757 55.0537 89.7726 55.9907 89.7726 57.0912Z"
              fill="currentColor"/>
        <path d="M104.748 56.6014L102.133 53.2781H100.662V60.9054H102.297V55.8387L104.748 58.9441L107.2 55.8169V60.9054H108.834V53.2781H107.385L104.748 56.6014Z"
              fill="currentColor"/>
        <path d="M118.359 53.2781H111.876V60.9054H113.511V54.7491H116.725V60.9054H118.359V53.2781Z"
              fill="currentColor"/>
        <path d="M125.33 57.691H123.477L124.404 55.1849L125.33 57.691ZM125.875 59.1075L126.528 60.9054H128.272L125.275 53.2781H123.532L120.536 60.9054H122.279L122.933 59.1075H125.875Z"
              fill="currentColor"/>
        <path d="M136.983 53.2781H135.349V56.329H132.08V53.2781H130.445V60.9054H132.08V57.8H135.349V60.9054H136.983V53.2781Z"
              fill="currentColor"/>
        <path d="M141.662 53.2781H140.027V60.9054H141.662V53.2781Z" fill="currentColor"/>
        <path d="M150.373 53.2781H146.995C146.232 53.2781 145.611 53.5178 145.121 53.9973C144.63 54.4767 144.38 55.076 144.38 55.7842C144.38 56.0893 144.434 56.3726 144.521 56.645C144.619 56.9174 144.728 57.1244 144.859 57.277C144.979 57.4295 145.11 57.5712 145.273 57.7019C145.426 57.8327 145.535 57.9198 145.6 57.9525C145.655 57.9743 145.709 58.007 145.742 58.0179L144.107 60.9054H145.851L147.322 58.2358H148.738V60.9054H150.373V53.2781ZM146.014 55.7842C146.014 55.4791 146.112 55.2394 146.308 55.0433C146.504 54.8472 146.755 54.7491 147.049 54.7491H148.738V56.7649H147.049C146.755 56.7649 146.504 56.6668 146.308 56.4816C146.112 56.2963 146.014 56.0566 146.014 55.7842Z"
              fill="currentColor"/>
        <path d="M4.98113 7.62939e-05H0V35.975H4.98113V22.6286C4.98113 20.3708 5.54273 18.5896 6.66593 17.3353C7.78912 16.0809 9.32741 15.4286 11.232 15.4286C12.8679 15.4286 14.2353 16.0307 15.3341 17.1847C16.4329 18.3638 16.9944 19.844 16.9944 21.6252V36.0001H22V21.6252C22 18.3137 21.0966 15.7046 19.2897 13.7478C17.4828 11.791 15.1143 10.8126 12.2331 10.8126C11.4029 10.8126 10.5727 10.913 9.76693 11.1388C8.93674 11.3645 8.27747 11.6154 7.74029 11.8914C7.20311 12.1673 6.69034 12.4684 6.22642 12.8196C5.76249 13.1708 5.44506 13.4217 5.29856 13.5722C5.15205 13.7227 5.02997 13.8231 4.98113 13.8983V7.62939e-05Z"
              fill="#F0145A"/>
        <path d="M33.135 0H28V35.945H33.135V0Z" fill="currentColor"/>
        <path d="M63.4222 25.4178L63.6789 22.8503C63.6789 19.4098 62.5492 16.5342 60.2385 14.2235C57.9277 11.9127 55.0521 10.783 51.6117 10.783C48.1712 10.783 45.1929 12.0154 42.7281 14.4802C40.2633 16.945 39.0309 19.872 39.0309 23.3638C39.0309 26.9583 40.3147 30.0393 42.8308 32.6068C45.347 35.1743 48.3766 36.4581 51.8684 36.4581C53.2035 36.4581 54.4359 36.2527 55.6683 35.8932C56.9007 35.4824 57.9277 35.0716 58.6466 34.6608C59.4169 34.1987 60.1871 33.6852 60.8547 33.1203C61.5222 32.5555 61.9844 32.1447 62.1898 31.8879C62.3952 31.6312 62.5492 31.4771 62.6519 31.3231L59.3142 27.9853L58.5439 28.961C58.0304 29.5772 57.1575 30.1934 55.9251 30.8609C54.6413 31.5285 53.3062 31.8366 51.8684 31.8366C49.8658 31.8366 48.1712 31.2204 46.7334 29.9366C45.2956 28.6529 44.4227 27.1637 44.1659 25.4178H63.4222ZM51.6117 15.1478C53.5116 15.1478 55.0521 15.7126 56.3359 16.791C57.5683 17.9207 58.3385 19.3071 58.6466 21.053H44.3713C44.8335 19.3071 45.6551 17.9207 46.9388 16.791C48.1712 15.7126 49.7631 15.1478 51.6117 15.1478Z"
              fill="currentColor"/>
        <path d="M87.3712 34.4554C87.3712 36.7148 86.7037 38.5634 85.3172 40.0012C83.9821 41.3877 82.2876 42.1066 80.1822 42.1066C79.2579 42.1066 78.3336 41.9525 77.4607 41.6958C76.5877 41.439 75.9202 41.1309 75.3553 40.7715C74.7905 40.412 74.277 40.0526 73.7635 39.5904C73.3013 39.1283 72.9932 38.8202 72.8392 38.6661C72.6851 38.5121 72.5824 38.358 72.4797 38.2553L69.142 41.5931L69.5528 42.1066C69.8095 42.466 70.2717 42.9282 70.8879 43.4417C71.5041 43.9038 72.223 44.4173 73.0446 44.9308C73.8662 45.393 74.8932 45.8038 76.1769 46.1632C77.4607 46.5227 78.7958 46.7281 80.1822 46.7281C83.674 46.7281 86.5496 45.547 88.9631 43.1849C91.3252 40.7715 92.5062 37.8959 92.5062 34.404V11.2965H87.3712V13.864L86.4983 13.0938C85.9334 12.5803 85.0605 12.0668 83.8281 11.5533C82.5957 11.0398 81.2606 10.783 79.9255 10.783C76.7931 10.783 74.1229 11.9641 71.8122 14.3775C69.5014 16.791 68.3717 19.6666 68.3717 23.107C68.3717 26.5475 69.5014 29.4231 71.8122 31.8365C74.1229 34.25 76.7931 35.431 79.9255 35.431C80.7984 35.431 81.62 35.3284 82.493 35.1229C83.3146 34.8662 83.9821 34.6094 84.547 34.3527C85.1118 34.0959 85.6253 33.7878 86.0875 33.4284C86.5496 33.0689 86.9091 32.8122 87.0118 32.7095L87.3712 32.35V34.4554ZM73.5067 23.107C73.5067 20.9503 74.1743 19.1531 75.5607 17.6639C76.9472 16.1748 78.5904 15.4045 80.439 15.4045C82.2876 15.4045 83.9308 16.1748 85.3172 17.6639C86.6523 19.1531 87.3712 20.9503 87.3712 23.107C87.3712 25.2637 86.6523 27.061 85.3172 28.5501C83.9308 30.0393 82.2876 30.8095 80.439 30.8095C78.5904 30.8095 76.9472 30.0393 75.5607 28.5501C74.1743 27.061 73.5067 25.2637 73.5067 23.107Z"
              fill="currentColor"/>
        <path d="M119.309 35.9446V20.026C119.309 17.4072 118.333 15.1991 116.433 13.4532C114.533 11.656 112.068 10.783 109.039 10.783C107.858 10.783 106.677 10.9371 105.547 11.2452C104.417 11.6046 103.493 11.9641 102.825 12.3749C102.158 12.7857 101.49 13.2478 100.874 13.8127C100.258 14.3262 99.8985 14.6856 99.6931 14.891C99.539 15.0964 99.385 15.2505 99.2823 15.4045L102.62 18.7423L103.288 17.8693C103.698 17.3045 104.417 16.791 105.496 16.2261C106.574 15.6613 107.755 15.4045 109.039 15.4045C110.528 15.4045 111.76 15.8667 112.736 16.7396C113.712 17.6126 114.174 18.7423 114.174 20.026L105.188 21.5665C102.979 21.926 101.182 22.7989 99.9498 24.1854C98.6661 25.5719 97.9985 27.2664 97.9985 29.2691C97.9985 31.169 98.8201 32.8122 100.463 34.25C102.158 35.7392 104.212 36.4581 106.728 36.4581C107.601 36.4581 108.423 36.3554 109.244 36.0986C110.117 35.8932 110.785 35.6365 111.35 35.3797C111.914 35.123 112.428 34.8149 112.89 34.4554C113.352 34.096 113.66 33.8392 113.866 33.7365C114.02 33.5825 114.122 33.4284 114.174 33.3771V35.9446H119.309ZM107.498 31.8366C106.163 31.8366 105.085 31.5285 104.315 30.9123C103.493 30.2961 103.134 29.5772 103.134 28.7556C103.134 27.8826 103.39 27.1124 103.955 26.5475C104.52 25.9827 105.29 25.5719 106.215 25.4178L114.174 24.134V24.6475C114.174 26.9583 113.609 28.7042 112.428 29.988C111.247 31.2204 109.604 31.8366 107.498 31.8366Z"
              fill="currentColor"/>
        <path d="M130.64 -3.8147e-06H125.505V35.945H130.64V-3.8147e-06Z" fill="currentColor"/>
        <path d="M153.989 14.1208L153.681 13.7613C153.475 13.5559 153.167 13.2992 152.705 12.9397C152.243 12.5803 151.729 12.2722 151.165 11.9127C150.6 11.6046 149.829 11.3479 148.905 11.0911C147.981 10.8857 147.005 10.783 146.03 10.783C143.513 10.783 141.459 11.5019 139.816 12.9397C138.122 14.4289 137.3 16.0721 137.3 17.972C137.3 19.3585 137.608 20.4882 138.224 21.5152C138.841 22.4908 139.611 23.2097 140.586 23.6205C141.511 24.0827 142.538 24.5448 143.616 24.9043C144.694 25.2638 145.67 25.5719 146.646 25.8286C147.57 26.1367 148.34 26.4962 148.957 26.9583C149.573 27.4205 149.881 28.0367 149.881 28.7556C149.881 29.6799 149.521 30.4501 148.854 31.015C148.186 31.5285 147.159 31.8366 145.773 31.8366C144.643 31.8366 143.513 31.5285 142.435 31.015C141.357 30.4501 140.689 29.988 140.33 29.6285C140.022 29.2691 139.765 28.961 139.611 28.7556L136.273 32.0933L136.633 32.5555C136.889 32.8636 137.249 33.223 137.762 33.6338C138.327 34.096 138.943 34.5068 139.611 34.9176C140.33 35.3284 141.254 35.6878 142.332 35.9959C143.411 36.304 144.592 36.4581 145.773 36.4581C148.494 36.4581 150.754 35.6878 152.448 34.1987C154.143 32.7095 155.016 30.8609 155.016 28.7556C155.016 27.3691 154.708 26.1881 154.092 25.2638C153.475 24.2881 152.705 23.5692 151.729 23.107C150.805 22.5935 149.778 22.1827 148.7 21.8233C147.621 21.4638 146.646 21.1044 145.67 20.899C144.746 20.6422 143.976 20.2314 143.359 19.7693C142.743 19.3071 142.435 18.6909 142.435 17.972C142.435 17.3045 142.743 16.6883 143.411 16.1748C144.027 15.6613 144.9 15.4045 146.03 15.4045C146.851 15.4045 147.673 15.6099 148.443 15.9694C149.265 16.3288 149.829 16.6369 150.086 16.8937C150.343 17.1504 150.548 17.3558 150.651 17.4585L153.989 14.1208Z"
              fill="currentColor"/>
    </symbol>

    <symbol viewBox="0 0 24 24" id="facebook">
        <g clip-path="url(#clip0_45671_3505)">
            <path d="M24 12.0733C24 5.40541 18.6274 0 12 0C5.37258 0 0 5.40541 0 12.0733C0 18.0995 4.38823 23.0943 10.125 24V15.5633H7.07813V12.0733H10.125V9.41343C10.125 6.38755 11.9165 4.71615 14.6576 4.71615C15.9705 4.71615 17.3438 4.95195 17.3438 4.95195V7.92313H15.8306C14.3399 7.92313 13.875 8.85379 13.875 9.80857V12.0733H17.2031L16.6711 15.5633H13.875V24C19.6118 23.0943 24 18.0995 24 12.0733Z"
                  fill="currentColor"/>
        </g>
        <defs>
            <clipPath id="clip0_45671_3505">
                <rect width="24" height="24" fill="currentColor"/>
            </clipPath>
        </defs>
    </symbol>

    <symbol viewBox="0 0 42 42" id="arrow-down">
        <g clip-path="url(#clip0_1_613)">
            <circle opacity="0.5" cx="21" cy="21" r="20.5" stroke="white" fill="currentColor"/>
            <path d="M12 18L21 27L30 18" stroke="white" stroke-width="2" fill="none"/>
        </g>
        <defs>
            <clipPath id="clip0_1_613">
                <rect width="42" height="42" fill="white"/>
            </clipPath>
        </defs>
    </symbol>






    <symbol viewBox="0 0 64 64" fill="none" id="service-bag">
        <path
                d="M23.7339 28.125C24.8379 28.125 25.7339 27.229 25.7339 26.125V18.325C25.7339 14.838 28.5709 12 32.0579 12C35.5449 12 38.3829 14.838 38.3829 18.325V26.125C38.3829 27.229 39.2779 28.125 40.3829 28.125C41.4869 28.125 42.3829 27.229 42.3829 26.125V18.325C42.3839 12.632 37.7519 8 32.0579 8C26.3659 8 21.7339 12.632 21.7339 18.325V26.125C21.7339 27.229 22.6299 28.125 23.7339 28.125Z"
                fill="url(#paint0_linear_22728_10153)" />
        <path
                d="M55 23.6309H44.384V26.1249C44.384 28.3309 42.59 30.1249 40.384 30.1249C38.178 30.1249 36.384 28.3309 36.384 26.1249V23.6309H27.735V26.1249C27.735 28.3309 25.941 30.1249 23.735 30.1249C21.529 30.1249 19.735 28.3309 19.735 26.1249V23.6309H8.99997C8.44797 23.6309 8.10697 24.0659 8.23797 24.6019L15.236 53.0989C15.658 54.7009 17.344 55.9999 19 55.9999H45C46.658 55.9999 48.342 54.7009 48.766 53.0989L55.762 24.6019C55.893 24.0649 55.553 23.6309 55 23.6309Z"
                fill="url(#paint1_linear_22728_10153)" />
        <path
                d="M28.6001 34.4C28.6001 33.6265 29.2266 33 30.0001 33C30.7736 33 31.4001 33.6265 31.4001 34.4V41.35L31.4001 40C31.4001 39.2265 32.0266 38.6 32.8001 38.6C33.5736 38.6 34.2001 39.2265 34.2001 40V41.6764C34.2127 40.9141 34.8346 39.3 35.6 39.3C36.3731 39.3 36.9999 39.9268 37 40.7C37 40.7 37.0411 41.7411 37.1332 41.8033C37.3572 41.3285 37.8402 40 38.4 40C39.1732 40 39.8 40.6268 39.8 41.4V48.4C39.8 49.9463 38.5463 51.2 37 51.2H32.3198C30.8344 51.2 29.4099 50.6099 28.3599 49.5599L26.15 47.35L23 45.9402C23.0051 44.6033 24.0526 44.2 25.1 44.2C26.0023 44.2 26.8136 44.3407 28.6 45.25L28.6001 34.4Z"
                fill="white" />
        <defs>
            <linearGradient id="paint0_linear_22728_10153" x1="32.0584" y1="8" x2="32.0584"
                            y2="28.125" gradientUnits="userSpaceOnUse">
                <stop stop-color="#EF8080" />
                <stop offset="1" stop-color="#F0145A" />
            </linearGradient>
            <linearGradient id="paint1_linear_22728_10153" x1="32" y1="23.6309" x2="32"
                            y2="55.9999" gradientUnits="userSpaceOnUse">
                <stop stop-color="#EF8080" />
                <stop offset="1" stop-color="#F0145A" />
            </linearGradient>
        </defs>

    </symbol>

    <symbol viewBox="0 0 64 64" id="lawyer_support" fill="none">
        <path fill-rule="evenodd" clip-rule="evenodd"
              d="M53.4513 35.0762V52.3713C53.4513 55.4647 51.027 57.9997 48.0632 57.9997H15.9702C13.0064 57.9997 10.5822 55.4647 10.5822 52.3713V35.0762H27.2482V42.587L32.0167 45.7204L36.7852 42.587V35.0762H53.4513Z"
              fill="url(#paint0_linear_22728_10159)" />
        <path fill-rule="evenodd" clip-rule="evenodd"
              d="M28.9185 35.0762V41.6847L32.0166 43.7202L35.1147 41.6847V35.0762H28.9185Z"
              fill="url(#paint1_linear_22728_10159)" />
        <path fill-rule="evenodd" clip-rule="evenodd"
              d="M12.0734 15.1426H51.9599C53.8423 15.1426 55.3808 16.8507 55.3808 18.938V29.1912C55.3808 31.2786 53.8423 32.9867 51.9599 32.9867H36.314H27.7194H12.0734C10.191 32.9867 8.65259 31.2786 8.65259 29.1912V18.938C8.65259 16.8507 10.191 15.1426 12.0734 15.1426Z"
              fill="url(#paint2_linear_22728_10159)" />
        <path fill-rule="evenodd" clip-rule="evenodd"
              d="M23.7119 5.95508H40.3214C41.8646 5.95508 43.1274 7.21788 43.1274 8.76103V13.1384H39.5699V10.5516C39.5699 9.8542 38.9998 9.2817 38.3024 9.2817H25.731C25.0336 9.2817 24.4635 9.8542 24.4635 10.5516V13.1384H20.9059V8.76103C20.9059 7.21788 22.1687 5.95508 23.7119 5.95508Z"
              fill="url(#paint3_linear_22728_10159)" />
        <defs>
            <linearGradient id="paint0_linear_22728_10159" x1="32.0167" y1="35.0762"
                            x2="32.0167" y2="57.9997" gradientUnits="userSpaceOnUse">
                <stop stop-color="#EF8080" />
                <stop offset="1" stop-color="#F0145A" />
            </linearGradient>
            <linearGradient id="paint1_linear_22728_10159" x1="32.0166" y1="35.0762"
                            x2="32.0166" y2="43.7202" gradientUnits="userSpaceOnUse">
                <stop stop-color="#EF8080" />
                <stop offset="1" stop-color="#F0145A" />
            </linearGradient>
            <linearGradient id="paint2_linear_22728_10159" x1="32.0167" y1="15.1426"
                            x2="32.0167" y2="32.9867" gradientUnits="userSpaceOnUse">
                <stop stop-color="#EF8080" />
                <stop offset="1" stop-color="#F0145A" />
            </linearGradient>
            <linearGradient id="paint3_linear_22728_10159" x1="32.0167" y1="5.95508"
                            x2="32.0167" y2="13.1384" gradientUnits="userSpaceOnUse">
                <stop stop-color="#EF8080" />
                <stop offset="1" stop-color="#F0145A" />
            </linearGradient>
        </defs>
    </symbol>

    <symbol viewBox="0 0 100 100" id="mini_logo">
        <path fill-rule="evenodd" clip-rule="evenodd" d="M15.4771 97.7217H0.00146484C0.00146484 97.7217 19.9174 36.4208 26.4996 16.1692C29.5791 6.69403 38.4075 0.278809 48.3687 0.278809H76.0355C84.3789 0.278809 91.342 3.803 95.6715 9.75825C99.9978 15.7138 101.225 23.3342 98.7022 31.1082C96.1761 38.8821 93.79 46.2206 91.6057 52.9444C88.6563 62.0231 80.4856 68.2788 71.0387 68.7876C71.0387 68.7876 70.9898 68.7717 84.2259 28.0322C85.3946 24.4371 84.9681 20.9181 83.1321 18.3942C81.2994 15.8707 78.2068 14.3772 74.1149 14.3772H50.374C45.7124 14.3772 41.5814 17.3792 40.1393 21.8133L15.4771 97.7217Z" fill="#F0145A"/>
        <path fill-rule="evenodd" clip-rule="evenodd" d="M71.0378 68.7874H39.8452L53.5894 26.9871L69.1384 27.079L60.1097 54.6457L75.6125 54.655L71.0378 68.7874Z" fill="url(#paint0_linear_1_516)"/>
        <defs>
            <linearGradient id="paint0_linear_1_516" x1="39.843" y1="60.7811" x2="74.5415" y2="78.917" gradientUnits="userSpaceOnUse">
                <stop stop-color="#F0145A"/>
                <stop offset="1" stop-color="#693264"/>
            </linearGradient>
        </defs>
    </symbol>

</svg>